#!OML:ASF F:\VICON\USERDATA\INSTALL\rory3\rory3.ASF
:FULLY-SPECIFIED
:DEGREES
2529
root 0.418224 18.5954 -1.16547 8.08107 17.8049 7.77729
lowerback 13.9832 -1.68976 1.09242
upperback 6.16712 -1.98429 1.36535
thorax -1.33033 -0.959191 1.0995
lowerneck 1.84366 -0.654366 -5.92118
upperneck 30.383 -1.48425 4.85703
head 9.31127 -0.76921 2.64813
rclavicle -1.19271e-014 2.38542e-014
rhumerus -34.5491 4.6023 -72.8715
rradius 43.3239
rwrist 1.41051
rhand -24.9364 5.10557
rfingers 7.12502
rthumb 1.57298 -24.8684
lclavicle -1.19271e-014 2.38542e-014
lhumerus -37.1799 11.09 75.5872
lradius 26.9449
lwrist -3.76666
lhand -26.4822 23.1834
lfingers 7.12502
lthumb 0.0800222 53.1631
rfemur -25.8098 16.1921 1.67671
rtibia 29.1287
rfoot -16.2061 -13.1409
rtoes 3.75413
lfemur -8.87536 -10.0873 -4.60227
ltibia 17.8164
lfoot 5.73095 -3.89393
ltoes -20.7574
2530
root 0.481183 18.567 -1.22951 8.0402 17.7411 7.40525
lowerback 14.0329 -1.64173 1.0464
upperback 6.18659 -1.92634 1.36437
thorax -1.33559 -0.931218 1.11696
lowerneck 1.9845 -0.679988 -5.8121
upperneck 30.2281 -1.52862 4.84013
head 9.23051 -0.782064 2.61639
rclavicle 1.90833e-014 2.70347e-014
rhumerus -34.7538 4.31098 -72.8533
rradius 43.599
rwrist 1.24477
rhand -24.7118 5.16852
rfingers 7.12502
rthumb 1.78989 -24.8037
lclavicle 1.90833e-014 2.70347e-014
lhumerus -37.0526 10.636 75.6674
lradius 27.073
lwrist -3.75323
lhand -26.4415 23.3785
lfingers 7.12502
lthumb 0.119378 53.3582
rfemur -26.1117 16.1623 1.71612
rtibia 29.2341
rfoot -16.3679 -13.0141
rtoes 3.00969
lfemur -8.95485 -9.9067 -4.6038
ltibia 17.8755
lfoot 5.04116 -3.69896
ltoes -20.771
2531
root 0.548799 18.541 -1.28597 8.01 17.6175 7.2057
lowerback 14.0168 -1.5744 0.856077
upperback 6.21897 -1.86556 1.27966
thorax -1.29078 -0.903405 1.1257
lowerneck 2.14075 -0.686357 -5.60502
upperneck 30.1294 -1.54231 4.77747
head 9.16478 -0.774737 2.55478
rclavicle -6.36111e-015 1.27222e-014
rhumerus -34.9808 4.05667 -72.8967
rradius 43.844
rwrist 1.01048
rhand -24.5524 4.94489
rfingers 7.12502
rthumb 1.94383 -25.026
lclavicle -6.36111e-015 1.27222e-014
lhumerus -36.8467 10.2166 75.6919
lradius 27.0745
lwrist -3.78177
lhand -26.2697 23.9643
lfingers 7.12502
lthumb 0.285296 53.9438
rfemur -26.3763 16.0343 1.58148
rtibia 29.381
rfoot -16.607 -12.7259
rtoes 2.08771
lfemur -8.89868 -9.72726 -4.85778
ltibia 18.0116
lfoot 3.94765 -3.29298
ltoes -20.5318
2532
root 0.620182 18.5143 -1.33703 7.9217 17.3711 7.11858
lowerback 14.02 -1.49553 0.473187
upperback 6.277 -1.81434 1.16939
thorax -1.22427 -0.883548 1.21784
lowerneck 2.21807 -0.629232 -5.58736
upperneck 30.1862 -1.505 4.91448
head 9.1686 -0.74609 2.60313
rclavicle 6.36111e-015 -2.38542e-014
rhumerus -35.2697 3.81023 -72.9402
rradius 44.1765
rwrist 0.848139
rhand -24.3576 4.58326
rfingers 7.12502
rthumb 2.13202 -25.3858
lclavicle 6.36111e-015 -2.38542e-014
lhumerus -36.7107 9.95507 75.6351
lradius 27.001
lwrist -3.8538
lhand -26.2308 23.9556
lfingers 7.12502
lthumb 0.322871 53.9351
rfemur -26.5827 15.6472 1.39655
rtibia 29.543
rfoot -16.3622 -12.1324
rtoes 0.726045
lfemur -8.71569 -9.48908 -5.29836
ltibia 18.2233
lfoot 2.47291 -2.61921
ltoes -20.4607
2533
root 0.688833 18.484 -1.39681 7.79771 17.1464 6.84013
lowerback 14.087 -1.44349 0.172959
upperback 6.34211 -1.78424 1.14821
thorax -1.18354 -0.873995 1.36119
lowerneck 2.26671 -0.579224 -5.67989
upperneck 30.134 -1.46858 5.05101
head 9.13901 -0.730066 2.6682
rclavicle 3.18055e-015 -1.98785e-014
rhumerus -35.4726 3.61861 -72.9376
rradius 44.507
rwrist 0.743842
rhand -24.328 4.5926
rfingers 7.12502
rthumb 2.16061 -25.3762
lclavicle 3.18055e-015 -1.98785e-014
lhumerus -36.5882 9.67816 75.6343
lradius 27.0092
lwrist -3.7668
lhand -26.2547 23.8018
lfingers 7.12502
lthumb 0.299709 53.7813
rfemur -26.8622 15.228 1.42199
rtibia 29.7208
rfoot -15.5987 -11.5975
rtoes -2.41007
lfemur -8.66252 -9.0497 -5.52287
ltibia 18.4882
lfoot 1.04289 -1.96205
ltoes -20.7304
2534
root 0.755623 18.4562 -1.46764 7.67858 17.0389 6.3648
lowerback 14.1721 -1.42857 0.0849694
upperback 6.41609 -1.77502 1.1507
thorax -1.14856 -0.871267 1.41317
lowerneck 2.2206 -0.569912 -5.49196
upperneck 30.0572 -1.45368 4.99019
head 9.11641 -0.711153 2.61262
rclavicle -1.07344e-014 -8.74653e-015
rhumerus -35.5298 3.45657 -73.0041
rradius 44.6952
rwrist 0.597546
rhand -24.5408 4.74064
rfingers 7.12502
rthumb 1.95506 -25.2301
lclavicle -1.07344e-014 -8.74653e-015
lhumerus -36.3175 9.32524 75.62
lradius 26.9716
lwrist -3.66644
lhand -26.2289 23.8889
lfingers 7.12502
lthumb 0.324645 53.8684
rfemur -27.2673 15.077 1.54715
rtibia 29.905
rfoot -15.7533 -11.2203
rtoes -2.39289
lfemur -8.79302 -8.56949 -5.52239
ltibia 18.8974
lfoot -0.52411 -1.30523
ltoes -21.4787
2535
root 0.824157 18.4327 -1.54254 7.56867 16.8837 5.87264
lowerback 14.2784 -1.39203 0.00133393
upperback 6.44809 -1.7369 1.15823
thorax -1.16956 -0.854091 1.46498
lowerneck 2.27459 -0.549904 -5.24306
upperneck 29.98 -1.44014 4.96049
head 9.07518 -0.684491 2.55719
rclavicle 5.76476e-014 -2.78299e-014
rhumerus -35.6184 3.26837 -73.024
rradius 44.8162
rwrist 0.52594
rhand -24.302 4.90792
rfingers 7.12502
rthumb 2.18571 -25.0606
lclavicle 5.76476e-014 -2.78299e-014
lhumerus -36.0695 9.0152 75.5932
lradius 26.7946
lwrist -3.80356
lhand -26.2907 23.9534
lfingers 7.12502
lthumb 0.264987 53.9329
rfemur -27.6781 14.9798 1.65326
rtibia 30.0583
rfoot -15.7898 -10.8288
rtoes -1.5716
lfemur -8.99748 -8.13102 -5.54085
ltibia 19.482
lfoot -2.46384 -0.358819
ltoes -22.5779
2536
root 0.892882 18.401 -1.61652 7.4345 16.5511 5.32395
lowerback 14.3868 -1.28187 -0.101981
upperback 6.47493 -1.60548 1.17028
thorax -1.19899 -0.791184 1.51873
lowerneck 2.35477 -0.509615 -5.09997
upperneck 29.8853 -1.41771 5.0367
head 9.02331 -0.655741 2.55767
rclavicle -1.59028e-015 -7.15625e-015
rhumerus -35.8047 3.03873 -73.0338
rradius 45.0248
rwrist 0.586155
rhand -24.1027 5.2301
rfingers 7.12502
rthumb 2.37817 -24.7364
lclavicle -1.59028e-015 -7.15625e-015
lhumerus -35.8491 8.64694 75.5713
lradius 26.587
lwrist -4.00042
lhand -26.3564 23.8326
lfingers 7.12502
lthumb 0.201513 53.8122
rfemur -27.9879 14.7814 1.9063
rtibia 30.1546
rfoot -15.6009 -10.2935
rtoes -2.20721
lfemur -9.1992 -7.60263 -5.51474
ltibia 20.1293
lfoot -4.28296 0.715851
ltoes -23.4696
2537
root 0.960136 18.3633 -1.68623 7.24529 16.1799 4.73714
lowerback 14.4323 -1.16827 -0.276392
upperback 6.58682 -1.47911 1.19555
thorax -1.10351 -0.733183 1.62409
lowerneck 2.33457 -0.461862 -5.03762
upperneck 29.7827 -1.38048 5.12988
head 8.9865 -0.626843 2.57896
rclavicle 3.37934e-014 -8.74653e-015
rhumerus -35.9241 2.85119 -73.0862
rradius 45.3252
rwrist 0.589461
rhand -24.0646 5.28079
rfingers 7.12502
rthumb 2.41494 -24.6853
lclavicle 3.37934e-014 -8.74653e-015
lhumerus -35.5882 8.19229 75.5762
lradius 26.4585
lwrist -3.98171
lhand -26.4109 23.5048
lfingers 7.12502
lthumb 0.148912 53.4845
rfemur -28.2022 14.6214 2.24896
rtibia 30.1851
rfoot -15.3461 -9.77978
rtoes -4.13573
lfemur -9.37658 -7.03177 -5.42147
ltibia 20.7655
lfoot -5.76408 1.27355
ltoes -23.4722
